<svg xmlns="http://www.w3.org/2000/svg" viewBox="0 0 225 225"><defs><style>.a{fill:#fdfdfd;}.b{fill:#3b5997;}</style></defs><path class="a" d="M112.4,224.9H4c-2.7,0-4-.1-4-3.6Q.2,112.5,0,3.5C0,.4.9,0,3.7,0H221.5c3.1,0,3.5.9,3.5,3.7q-.1,108.9,0,217.8c0,3.2-.8,3.5-3.7,3.5ZM112.6,1H14.3C6,1,1,5.7,1,13.8V211.5C1,219.1,6,224,13.5,224H116.4c2.6,0,3.8-.4,3.7-3.4q-.1-39.7,0-79.4c.1-3-.9-3.6-3.6-3.5-7.2.1-14.4-.1-21.5.1-3,.1-4.1-.6-4-3.8.2-8.9.2-17.7,0-26.5-.1-2.8.8-3.7,3.6-3.6,7.3.1,14.7-.1,22,.1,2.9.1,3.6-.9,3.5-3.7-.1-8.1-.2-16.3.1-24.4.6-21.2,12.3-36,31.9-40.3,11.6-2.5,23.3-.6,34.9-.1,2.5.1,2.7,1.7,2.6,3.8,0,7.6-.2,15.3.1,22.9.1,3.3-1.2,3.9-4.1,3.8-5.3-.2-10.7-.2-16,0-10.1.4-14.4,5-14.6,15-.1,6.4.2,12.7-.2,19-.1,3.5,1.3,4,4.3,4,8.5-.2,17,0,25.5-.1,2.9-.1,3.7.9,3.3,3.6-1.2,8.9-2.3,17.8-3.4,26.7-.3,2.6-1.3,3.7-4.1,3.6-7.2-.2-14.3,0-21.5-.1-2.8-.1-4.1.2-4.1,3.6q.3,39.4.1,78.9c-.1,3.3,1,3.9,3.9,3.8h50.9c9.9-.1,14.3-4.4,14.3-14.3V15.5C224,5.3,219.7,1,209.5,1Z"/><path class="b" d="M112.6,1h96.9C219.7,1,224,5.3,224,15.5V209.8c0,9.9-4.4,14.2-14.3,14.3H158.8c-2.9.1-4-.5-3.9-3.8q.2-39.5-.1-78.9c0-3.4,1.3-3.7,4.1-3.6,7.2.1,14.3-.1,21.5.1,2.8.1,3.8-1,4.1-3.6,1.1-8.9,2.2-17.8,3.4-26.7.4-2.7-.4-3.7-3.3-3.6-8.5.1-17-.1-25.5.1-3,0-4.4-.5-4.3-4,.4-6.3.1-12.6.2-19,.2-10,4.5-14.6,14.6-15,5.3-.2,10.7-.2,16,0,2.9.1,4.2-.5,4.1-3.8-.3-7.6-.1-15.3-.1-22.9.1-2.1-.1-3.7-2.6-3.8-11.6-.5-23.3-2.4-34.9.1C132.5,40,120.8,54.8,120.2,76c-.3,8.1-.2,16.3-.1,24.4.1,2.8-.6,3.8-3.5,3.7-7.3-.2-14.7,0-22-.1-2.8-.1-3.7.8-3.6,3.6.2,8.8.2,17.6,0,26.5-.1,3.2,1,3.9,4,3.8,7.1-.2,14.3,0,21.5-.1,2.7-.1,3.7.5,3.6,3.5q-.1,39.6,0,79.4c.1,3-1.1,3.4-3.7,3.4H13.5C6,224,1,219.1,1,211.5V13.8C1,5.7,6,1,14.3,1Z"/></svg>