<svg xmlns="http://www.w3.org/2000/svg" viewBox="0 0 366.2 374.9"><defs><style>.a{fill:#e94335;}.b{fill:#34a753;}.c{fill:#4284f3;}.d{fill:#fabb05;}</style></defs><path d="M309.4,328.2a5.8,5.8,0,0,0,1.2-1,172.3,172.3,0,0,0,44-68.3,207.9,207.9,0,0,0,11.1-54.6c1.2-16.5.5-32.8-3.2-48.9-.4-1.7-1.1-2-2.6-2H189.4c-1.7,0-2.1.5-2,2.1v67.7c0,2.7,0,2.7,2.7,2.7h95.6c1.3,0,2.2-.1,1.8,1.8a89.1,89.1,0,0,1-17.8,36.7,92.3,92.3,0,0,1-19.9,17.5c-15.3,9.6-32.2,14.3-50,15.9a113.4,113.4,0,0,1-28.5-.7,110.8,110.8,0,0,1-89.2-74.9,6.5,6.5,0,0,0-.4-1.3,112.4,112.4,0,0,1-3.8-50.2,138.3,138.3,0,0,1,4.2-18c.2-.6.5-1.2.7-1.7A110.2,110.2,0,0,1,194.3,77.1c22.5,1.4,42.5,9.2,60.3,23,1.4,1.1,2.1,1.1,3.4-.2q25.5-25.7,51.2-51.1c1.5-1.5,1.4-2.2-.2-3.5C260.1,5,204.6-8.9,142.9,5.6,90.8,17.9,51.5,48.5,24.4,94.6a67.3,67.3,0,0,0-5.1,10,4.5,4.5,0,0,0-1.1,1.9A185,185,0,0,0,.2,178,188,188,0,0,0,11,251.2a140.8,140.8,0,0,0,8.3,19.2c.5,1,.9,2.1,1.4,3.1A187.3,187.3,0,0,0,177.8,374.7a195.7,195.7,0,0,0,24.2-.3c6.9-.6,13.7-1.6,20.5-2.8a175.7,175.7,0,0,0,68.8-28.7A141.8,141.8,0,0,0,309.4,328.2Z"/><path class="a" d="M19.3,104.6a67.3,67.3,0,0,1,5.1-10c27.1-46.1,66.4-76.7,118.5-89C204.6-8.9,260.1,5,309,45.3c1.6,1.3,1.7,2,.2,3.5Q283.6,74.3,258,99.9c-1.3,1.3-2,1.3-3.4.2-17.8-13.8-37.8-21.6-60.3-23A110.2,110.2,0,0,0,82.8,151c-.2.5-.5,1.1-.7,1.7L56.4,133.1Z"/><path class="b" d="M82.1,222.2a110.8,110.8,0,0,0,89.2,74.9,113.4,113.4,0,0,0,28.5.7c17.8-1.6,34.7-6.3,50-15.9l1.9,1.5L282,306.9l27.4,21.3a141.8,141.8,0,0,1-18.1,14.7,175.7,175.7,0,0,1-68.8,28.7c-6.8,1.2-13.6,2.2-20.5,2.8a195.7,195.7,0,0,1-24.2.3A187.3,187.3,0,0,1,20.7,273.5c-.5-1-.9-2.1-1.4-3.1Z"/><path class="c" d="M309.4,328.2,282,306.9l-30.3-23.5-1.9-1.5a92.3,92.3,0,0,0,19.9-17.5,89.1,89.1,0,0,0,17.8-36.7c.4-1.9-.5-1.8-1.8-1.8H190.1c-2.7,0-2.7,0-2.7-2.7V155.5c-.1-1.6.3-2.1,2-2.1H359.9c1.5,0,2.2.3,2.6,2,3.7,16.1,4.4,32.4,3.2,48.9a207.9,207.9,0,0,1-11.1,54.6,172.3,172.3,0,0,1-44,68.3A5.8,5.8,0,0,1,309.4,328.2Z"/><path class="d" d="M82.1,222.2,19.3,270.4A140.8,140.8,0,0,1,11,251.2,188,188,0,0,1,.2,178a185,185,0,0,1,18-71.5,4.5,4.5,0,0,1,1.1-1.9l37.1,28.5,25.7,19.6a138.3,138.3,0,0,0-4.2,18,112.4,112.4,0,0,0,3.8,50.2A6.5,6.5,0,0,1,82.1,222.2Z"/></svg>