<svg xmlns="http://www.w3.org/2000/svg" viewBox="0 0 247.3 232.2"><defs><style>.a{fill:#030303;}</style></defs><path class="a" d="M199.2,167.2l.7,1,18.6,24.9,5.3,7.1c4.5,6.6,9.2,13,14.3,19.1l9.2,12.9H174.2c-4.7-4-7.3-9.8-11.5-14.2l-12.1-16.1-6.6-8.8c-12.1-16.4-24.3-32.7-36.4-49-1.6-2.2-2.7-2.4-4.3-.2s-3.4,4-5.1,6a241.2,241.2,0,0,0-16.9,18.2,57,57,0,0,0-8.2,8.8,190.6,190.6,0,0,0-14.9,16.2,78.6,78.6,0,0,0-10,10.8A134.2,134.2,0,0,0,35.1,218a111.6,111.6,0,0,0-11.9,12.9c-7.4,2.6-14.9.4-23.2,1.3l12.4-14a95.2,95.2,0,0,0,11-11.9,125.2,125.2,0,0,0,12.1-13.1,141.5,141.5,0,0,0,12.9-13.9,96.3,96.3,0,0,0,10.2-11,201.8,201.8,0,0,0,14.8-15.9c2.9-2.8,6-5.5,8-9.2,2.9-1.3,4.4-4,6.4-6.1,8.6-9.2,8.5-9.2.1-19-4.6-6.6-9.3-13.1-14.5-19.3a19.6,19.6,0,0,0-4.2-5.7L58.4,78.3,12.3,17.1.1,0H73.2c5.7,5.5,9.2,12.6,14.6,18.3L98,32l8.4,11.2c5.6,8.2,11.5,16.1,17.9,23.8l.8,1.2,11.7,16.2c12.3-13.6,24.4-26.8,36.5-40l1-1.1c8-8.1,15.8-16.4,23.1-25.1a2.9,2.9,0,0,0,1.8-1.9c3.6-3.7,7.4-7.2,10.6-11.1s6.5-5.8,11.4-5a17.9,17.9,0,0,0,4-.2h11L225.1,12.8a13.4,13.4,0,0,0-4,4.2c-7.3,7.3-14.4,14.8-21,22.8a8.2,8.2,0,0,0-3.1,3.3c-7.6,7.6-15,15.5-21.9,23.7L173,69.1,150.8,93c-4,2.5-4.3,5-1,8.8s8.5,10.8,12.6,16.3A133.1,133.1,0,0,0,173,132.2a66.2,66.2,0,0,0,8.2,10.9A279.4,279.4,0,0,0,199.2,167.2Zm-53.2,1a10.4,10.4,0,0,0,2.8,3.8l16.5,22,7.6,10.2c2.5,3.5,5,6.9,7.4,10.4a4.2,4.2,0,0,0,3.7,2l15.2-.4h16.4L199.2,195l-1.3-1.9-18.8-25a22.1,22.1,0,0,0-4.7-6.3l-14-18.8a134.8,134.8,0,0,0-11.2-14.9,67.5,67.5,0,0,0-7.6-10.2c-5.4-7.9-11.1-15.6-17.3-23l-1.2-1.7c-12.2-17-24.7-33.9-37.7-50.4a156.4,156.4,0,0,0-12-16.1L67,18c-.7-1.7-2.1-1.8-3.6-1.8l-15.1.2H32L52.5,43.2,90,93.3a78.6,78.6,0,0,0,8.2,11l10.3,13.8c4.6,6.5,9.2,13.1,14.4,19.1a20.8,20.8,0,0,0,4.3,5.9C133.1,151.8,139.4,160.1,146,168.2Z"/></svg>